<svg width="181" height="52" viewBox="0 0 181 52" fill="none" xmlns="http://www.w3.org/2000/svg">
<path d="M13.1644 13.8524V38.1475L1.01685 25.9999L13.1644 13.8524ZM38.609 26.1748V38.1412L26.6426 26.1748H38.609ZM13.7752 38.7583H38.348L26.0631 51.0462L13.7752 38.7583ZM13.7958 13.2179L26.06 0.953621L38.3479 13.2415H13.7721L13.7958 13.2179ZM36.9174 34.2579L37.2213 34.5618V34.1321V27.7436V27.5656H37.0433H30.6548H30.2251L30.529 27.8695L36.9174 34.2579Z" fill="url(#paint0_linear_1304_42)" stroke="url(#paint1_linear_1304_42)" stroke-width="0.35598"/>
<path d="M173.981 30.4183C176.647 30.4183 177.8 28.0348 177.8 25.4207C177.8 22.7809 176.57 20.4487 173.956 20.4487C171.521 20.4487 170.137 22.4477 170.137 25.4207C170.137 28.3936 171.521 30.4183 173.981 30.4183ZM180.235 31.9816H177.928V29.7775H177.749C176.903 31.4434 175.442 32.4686 173.392 32.4686C169.881 32.4686 167.753 29.4444 167.753 25.4207C167.753 21.2175 169.957 18.4753 173.366 18.4753C175.442 18.4753 176.98 19.526 177.8 21.0894H177.928V13.9133H180.235V31.9816Z" fill="white"/>
<path d="M160.062 31.9818V18.8342H162.318V21.0639H162.497C162.497 19.6031 163.881 18.8342 165.47 18.8342H166.957V21.0127H165.547C163.087 21.0127 162.343 22.7298 162.343 24.9082V31.9818H160.062Z" fill="white"/>
<path d="M150.6 32.4689C147.96 32.4689 146.063 30.7261 146.063 28.3939C146.063 21.9611 155.264 26.1642 155.264 22.1149C155.264 20.7309 153.778 20.3465 152.496 20.3465C151.266 20.3465 149.344 20.8591 148.857 23.0631H146.474C147.089 19.2957 150.395 18.4756 152.522 18.4756C154.854 18.4756 157.494 19.2957 157.494 22.1405V31.9563H155.29V29.5728H155.213C154.213 31.7513 152.624 32.4689 150.6 32.4689ZM151.01 30.6236C153.009 30.6236 155.239 29.214 155.239 25.9336V24.8059H155.162C153.265 26.9331 148.396 24.9853 148.396 28.3683C148.396 29.6754 149.446 30.6236 151.01 30.6236Z" fill="white"/>
<path d="M134.289 31.9818V30.239L141.618 20.8589H134.365V18.8342H144.438V20.6026L137.185 29.9315H144.463V31.9818H134.289Z" fill="white"/>
<path d="M129.296 17.2453V13.9392H132.166V17.2453H129.296ZM129.578 31.9819V18.8343H131.859V31.9819H129.578Z" fill="white"/>
<path d="M107.965 31.9816L103.326 13.9133H105.787L109.528 29.1368H109.708L113.885 13.9133H117.012L121.189 29.1368H121.343L125.111 13.9133H127.571L122.907 31.9816H119.754L115.5 16.7069L115.397 16.6812L111.143 31.9816H107.965Z" fill="white"/>
<path d="M90.4681 32.3149C88.1359 32.3149 84.9579 31.5973 84.4453 27.2916H86.6238C87.1107 30.0852 89.1866 30.4696 90.4937 30.4696C92.3133 30.4696 93.646 29.7264 93.646 28.3937C93.646 27.6761 93.2616 26.7791 91.0063 26.2921L89.161 25.9333C87.1876 25.5489 84.8554 24.6263 84.8554 22.2684C84.8554 19.5261 87.6233 18.501 89.9811 18.501C92.4671 18.501 95.2607 19.4236 95.7732 23.0885H93.5179C93.0822 21.192 91.9802 20.295 90.0068 20.2694C88.5972 20.2437 87.1876 20.8332 87.162 22.2428C87.1363 22.9348 87.6233 23.6524 89.6992 24.1137L92.0571 24.575C94.543 25.1132 95.9014 26.2152 95.9014 28.2912C95.8757 31.1103 93.3898 32.3149 90.4681 32.3149Z" fill="white"/>
<path d="M75.7267 32.4689C73.087 32.4689 71.1904 30.7261 71.1904 28.3939C71.1904 21.9611 80.3912 26.1642 80.3912 22.1149C80.3912 20.7309 78.9047 20.3465 77.6233 20.3465C76.3931 20.3465 74.4709 20.8591 73.984 23.0631H71.6005C72.2156 19.2957 75.5217 18.4756 77.6489 18.4756C79.9811 18.4756 82.6209 19.2957 82.6209 22.1405V31.9563H80.4168V29.5728H80.3399C79.3404 31.7513 77.7514 32.4689 75.7267 32.4689ZM76.1368 30.6236C78.1358 30.6236 80.3655 29.214 80.3655 25.9336V24.8059H80.2886C78.3921 26.9331 73.5226 24.9853 73.5226 28.3683C73.5226 29.6754 74.5734 30.6236 76.1368 30.6236Z" fill="white"/>
<path d="M56.4249 24.0881V22.0378H67.3171C68.5729 22.0378 69.393 22.781 69.393 24.1394V31.9561H67.2146V24.0881H66.702C66.702 29.4189 63.8059 32.315 59.7053 32.315C54.554 32.315 51.4272 28.5988 51.4272 22.9604C51.4272 17.3221 54.9384 13.5547 60.2948 13.5547C64.5748 13.5547 67.3171 15.8613 68.4704 19.3468H65.9331C64.9592 17.194 63.1396 15.81 60.3461 15.81C56.4761 15.81 53.8364 18.9111 53.8364 22.9348C53.8364 27.0867 55.9892 30.1621 59.731 30.1621C62.8321 30.1621 64.6517 27.8299 64.7029 24.0881H56.4249Z" fill="white"/>
<defs>
<linearGradient id="paint0_linear_1304_42" x1="0.765137" y1="51.2979" x2="38.7901" y2="51.2979" gradientUnits="userSpaceOnUse">
<stop offset="0.0650336" stop-color="#8E5DFF"/>
<stop offset="0.490841" stop-color="#0060F7"/>
<stop offset="1" stop-color="#00FFC7"/>
</linearGradient>
<linearGradient id="paint1_linear_1304_42" x1="30.1605" y1="40.7259" x2="24.704" y2="32.2338" gradientUnits="userSpaceOnUse">
<stop stop-color="white"/>
<stop offset="1" stop-color="white" stop-opacity="0"/>
</linearGradient>
</defs>
</svg>
